<?xml version="1.0" encoding="UTF-8"?>
<svg width="25px" height="16px" viewBox="0 0 25 16" version="1.1" xmlns="http://www.w3.org/2000/svg" xmlns:xlink="http://www.w3.org/1999/xlink">
    <!-- Generator: sketchtool 43.1 (39012) - http://www.bohemiancoding.com/sketch -->
    <title>79E71575-E097-4ED8-AE33-3EFC6D9C84E8</title>
    <desc>Created with sketchtool.</desc>
    <defs></defs>
    <g id="Page-1" stroke="none" stroke-width="1" fill="none" fill-rule="evenodd">
        <g id="Coming-Soon" transform="translate(-1340.000000, -963.000000)" fill-rule="nonzero" fill="#9B9B9B">
            <g id="social" transform="translate(1200.000000, 957.000000)">
                <g id="002-behance" transform="translate(140.000000, 6.000000)">
                    <g id="behance-icon">
                        <path d="M10.284375,7.11030273 C10.803125,6.84936523 11.1953125,6.55874023 11.4640625,6.24467773 C11.9421875,5.67905273 12.178125,4.92905273 12.178125,3.99936523 C12.178125,3.09467773 11.9421875,2.32124023 11.4703125,1.67280273 C10.6828125,0.616552734 9.35,0.0759277344 7.465625,0.0478027344 L0,0.0478027344 L0,15.2868652 L6.9609375,15.2868652 C7.7453125,15.2868652 8.471875,15.2196777 9.14375,15.0821777 C9.815625,14.9431152 10.396875,14.6884277 10.8890625,14.3165527 C11.3265625,13.9931152 11.6921875,13.5915527 11.9828125,13.1181152 C12.4421875,12.4024902 12.671875,11.5915527 12.671875,10.6884277 C12.671875,9.81342773 12.4703125,9.06811523 12.0703125,8.45561523 C11.665625,7.84311523 11.071875,7.39467773 10.284375,7.11030273 Z M3.0796875,2.69467773 L6.4421875,2.69467773 C7.18125,2.69467773 7.790625,2.77436523 8.26875,2.93217773 C8.821875,3.16186523 9.0984375,3.62905273 9.0984375,4.34155273 C9.0984375,4.98061523 8.8875,5.42749023 8.4703125,5.67905273 C8.05,5.93061523 7.5046875,6.05717773 6.8359375,6.05717773 L3.0796875,6.05717773 L3.0796875,2.69467773 Z M8.396875,12.3743652 C8.025,12.5540527 7.5015625,12.6431152 6.83125,12.6431152 L3.0796875,12.6431152 L3.0796875,8.57905273 L6.8828125,8.57905273 C7.5453125,8.58374023 8.0609375,8.67124023 8.4296875,8.83530273 C9.0859375,9.13217773 9.4125,9.67592773 9.4125,10.4712402 C9.4125,11.4087402 9.075,12.0399902 8.396875,12.3743652 Z" id="Shape"></path>
                        <rect id="Rectangle-path" x="15.975" y="0.758740234" width="6.6203125" height="1.896875"></rect>
                        <path d="M24.8953125,8.24467773 C24.7578125,7.36186523 24.4546875,6.58530273 23.9828125,5.91499023 C23.465625,5.15561523 22.809375,4.59936523 22.0109375,4.24780273 C21.215625,3.89467773 20.3203125,3.71811523 19.3234375,3.71967773 C17.65,3.71967773 16.290625,4.24311523 15.2390625,5.28217773 C14.190625,6.32436523 13.665625,7.82280273 13.665625,9.77592773 C13.665625,11.8587402 14.2453125,13.3634277 15.4109375,14.2868652 C16.571875,15.2118652 17.9125,15.6728027 19.434375,15.6728027 C21.2765625,15.6728027 22.709375,15.1243652 23.7328125,14.0306152 C24.3875,13.3399902 24.7578125,12.6603027 24.8390625,11.9931152 L21.7890625,11.9931152 C21.6125,12.3228027 21.4078125,12.5806152 21.1734375,12.7681152 C20.7484375,13.1118652 20.1953125,13.2837402 19.5171875,13.2837402 C18.871875,13.2837402 18.325,13.1415527 17.86875,12.8587402 C17.115625,12.4056152 16.721875,11.6118652 16.671875,10.4821777 L24.9953125,10.4821777 C25.0078125,9.50874023 24.9765625,8.76030273 24.8953125,8.24467773 Z M16.746875,8.53686523 C16.85625,7.80405273 17.121875,7.22280273 17.54375,6.79311523 C17.965625,6.36499023 18.5625,6.14936523 19.3265625,6.14780273 C20.03125,6.14780273 20.6203125,6.34936523 21.1,6.75405273 C21.5734375,7.16186523 21.840625,7.75405273 21.8953125,8.53686523 L16.746875,8.53686523 Z" id="Shape"></path>
                    </g>
                </g>
            </g>
        </g>
    </g>
</svg>