<?xml version="1.0" encoding="UTF-8"?>
<svg width="25px" height="25px" viewBox="0 0 25 25" version="1.1" xmlns="http://www.w3.org/2000/svg" xmlns:xlink="http://www.w3.org/1999/xlink">
    <!-- Generator: sketchtool 43.1 (39012) - http://www.bohemiancoding.com/sketch -->
    <title>EAC6E63A-86F6-4291-89FD-5DEFA75424B5</title>
    <desc>Created with sketchtool.</desc>
    <defs></defs>
    <g id="Page-1" stroke="none" stroke-width="1" fill="none" fill-rule="evenodd">
        <g id="Coming-Soon" transform="translate(-1200.000000, -957.000000)" fill-rule="nonzero" fill="#4A4A4A">
            <g id="social" transform="translate(1200.000000, 957.000000)">
                <g id="003-linkedin">
                    <g id="linkedin-icon">
                        <rect id="Rectangle-path" x="0" y="7.8125" width="5.590625" height="17.1875"></rect>
                        <path d="M20.81875,8.0140625 C20.759375,7.9953125 20.703125,7.975 20.640625,7.9578125 C20.565625,7.940625 20.490625,7.9265625 20.4140625,7.9140625 C20.1171875,7.8546875 19.7921875,7.8125 19.4109375,7.8125 C16.1515625,7.8125 14.084375,10.1828125 13.403125,11.0984375 L13.403125,7.8125 L7.8125,7.8125 L7.8125,25 L13.403125,25 L13.403125,15.625 C13.403125,15.625 17.628125,9.740625 19.4109375,14.0625 L19.4109375,25 L25,25 L25,13.4015625 C25,10.8046875 23.2203125,8.640625 20.81875,8.0140625 Z" id="Shape"></path>
                        <ellipse id="Oval" cx="2.734375" cy="2.734375" rx="2.734375" ry="2.734375"></ellipse>
                    </g>
                </g>
            </g>
        </g>
    </g>
</svg>