<?xml version="1.0" encoding="UTF-8"?>
<svg width="25px" height="21px" viewBox="0 0 25 21" version="1.1" xmlns="http://www.w3.org/2000/svg" xmlns:xlink="http://www.w3.org/1999/xlink">
    <!-- Generator: sketchtool 43.1 (39012) - http://www.bohemiancoding.com/sketch -->
    <title>F601712B-026A-4981-AECE-7E381E76525F</title>
    <desc>Created with sketchtool.</desc>
    <defs></defs>
    <g id="Page-1" stroke="none" stroke-width="1" fill="none" fill-rule="evenodd">
        <g id="Coming-Soon" transform="translate(-1270.000000, -963.000000)" fill-rule="nonzero" fill="#4A4A4A">
            <g id="social" transform="translate(1200.000000, 957.000000)">
                <g id="004-twitter" transform="translate(70.000000, 6.000000)">
                    <g id="twitter-icon">
                        <path d="M25,2.4046875 C24.0703125,2.8125 23.0796875,3.0828125 22.046875,3.2140625 C23.109375,2.5796875 23.9203125,1.5828125 24.3015625,0.38125 C23.3109375,0.971875 22.2171875,1.3890625 21.0515625,1.621875 C20.1109375,0.6203125 18.7703125,0 17.3078125,0 C14.4703125,0 12.1859375,2.303125 12.1859375,5.1265625 C12.1859375,5.5328125 12.2203125,5.9234375 12.3046875,6.2953125 C8.04375,6.0875 4.2734375,4.0453125 1.740625,0.934375 C1.2984375,1.7015625 1.0390625,2.5796875 1.0390625,3.525 C1.0390625,5.3 1.953125,6.8734375 3.315625,7.784375 C2.4921875,7.76875 1.684375,7.5296875 1,7.153125 L1,7.209375 C1,9.7 2.7765625,11.76875 5.10625,12.2453125 C4.6890625,12.359375 4.234375,12.4140625 3.7625,12.4140625 C3.434375,12.4140625 3.103125,12.3953125 2.7921875,12.3265625 C3.45625,14.35625 5.340625,15.8484375 7.58125,15.896875 C5.8375,17.2609375 3.6234375,18.0828125 1.2265625,18.0828125 C0.80625,18.0828125 0.403125,18.0640625 0,18.0125 C2.2703125,19.4765625 4.9609375,20.3125 7.8625,20.3125 C17.29375,20.3125 22.45,12.5 22.45,5.728125 C22.45,5.5015625 22.4421875,5.2828125 22.43125,5.065625 C23.4484375,4.34375 24.303125,3.4421875 25,2.4046875 Z" id="Shape"></path>
                    </g>
                </g>
            </g>
        </g>
    </g>
</svg>